<svg xmlns="http://www.w3.org/2000/svg" viewBox="0 0 333.76 179.26"><defs><style>.cls-1{fill:#ffe5af;}.cls-1,.cls-2,.cls-3,.cls-4,.cls-5,.cls-6{stroke:#000;stroke-miterlimit:10;stroke-width:3px;}.cls-2{fill:#fffebb;}.cls-4{fill:#ffc8ec;}.cls-5{fill:#d0d2d4;}.cls-6{fill:#abadad;}.cls-7{font-size:58.45px;}.cls-7,.cls-8{font-family:InkFree, Ink Free;}.cls-8{font-size:56.12px;}</style></defs><title>Gym Note Logo</title><g id="pencil"><polyline class="cls-1" points="32.6 75.52 2.79 94.52 32.6 113.52"/><rect class="cls-2" x="83.15" y="75.83" width="178.42" height="37.39"/><line class="cls-3" x1="95.55" y1="86.46" x2="241.64" y2="86.46"/><line class="cls-3" x1="97.12" y1="103.34" x2="243.21" y2="103.34"/><rect class="cls-4" x="260.57" y="75.83" width="71.69" height="37.39" rx="8.71" ry="8.71"/><rect class="cls-5" x="277.71" y="74.56" width="32.31" height="39.91"/><rect class="cls-2" x="29.4" y="75.08" width="40.51" height="10.63" rx="5.31" ry="5.31"/><rect class="cls-2" x="29.4" y="103.34" width="40.51" height="10.63" rx="5.31" ry="5.31"/><rect class="cls-2" x="28.07" y="86.08" width="43.17" height="16.88" rx="8.44" ry="8.44"/><polygon points="3.33 94.52 12.3 99.7 12.3 89.34 3.33 94.52"/></g><g id="outter_weight" data-name="outter weight"><rect class="cls-6" x="39.37" y="42.77" width="50.16" height="106.18" rx="19.7" ry="19.7"/><rect class="cls-6" x="251.21" y="42.77" width="50.16" height="106.18" rx="19.7" ry="19.7"/></g><g id="inner_weight" data-name="inner weight"><rect class="cls-6" x="64.45" y="25.4" width="37.4" height="140.91" rx="18.7" ry="18.7"/><rect class="cls-6" x="238.89" y="25.4" width="37.4" height="140.91" rx="18.7" ry="18.7"/></g><g id="text"><text class="cls-7" transform="translate(114.59 53.1)">Gym</text><text class="cls-8" transform="translate(112.09 160.85)">Note</text></g></svg>